<svg width="1586" height="2160" viewBox="0 0 1586 2160" fill="none" xmlns="http://www.w3.org/2000/svg">
<path d="M499 271H1092.5C1125 271 1180.5 285.2 1180.5 360V1796C1180.5 1830 1155.8 1889.5 1087 1889.5" stroke="black" stroke-width="10"/>
<path d="M1087.5 1889.5H494C461.5 1889.5 406 1875.3 406 1800.5V364.5C406 330.5 430.7 271 499.5 271" stroke="black" stroke-width="10"/>
<path d="M624.5 391C624.5 366 594 319 552 319C474 319 465 386.438 465 394.5C465 399.741 465 471.739 465 546.854C465 568.396 468.612 590.613 483.366 606.309C496.881 620.688 518.369 635.325 549.5 634.5C622 632.579 624.5 579.5 624.5 515" stroke="black" stroke-width="10" stroke-linecap="round"/>
<path d="M931 539L1072 369.5" stroke="black" stroke-width="10" stroke-linecap="round"/>
<path d="M795 1580V1752.5" stroke="black" stroke-width="10" stroke-linecap="round"/>
<path d="M794.5 1806.5V1816.5" stroke="black" stroke-width="10" stroke-linecap="round"/>
<path d="M1116 804C1076.33 754.167 957.8 654.5 801 654.5C623.589 654.5 512.542 751.998 473.792 808.685C466.724 819.024 464 831.42 464 843.945C464 923.005 464 1158.57 464 1294.61C464 1310.25 468.343 1325.6 478.252 1337.71C526.309 1396.4 638.479 1485.93 801 1487C965.006 1488.08 1071.21 1396 1114.31 1336.4C1122.53 1325.04 1126 1311.12 1126 1297.09V1083.5" stroke="black" stroke-width="10" stroke-linecap="round"/>
</svg>
